<svg id="Layer_1" xmlns="http://www.w3.org/2000/svg" viewBox="0 0 241.07 49.54"><defs><style>.cls-1{fill:#231f20;}</style></defs><path class="cls-1" d="M519.72,1073.27h3.47L520.84,1085a12.73,12.73,0,0,0-.28,2.48c0,2.68,1.08,4.15,3.71,4.15,2.21,0,3.88-1.64,4.72-5.87l2.5-12.5h3.39l-2.53,12.52c-1.23,6.24-4.08,8.84-8.21,8.84-4.61,0-7-2.32-7-7a18.8,18.8,0,0,1,.38-3.17Z" transform="translate(-508.74 -1072.89)"></path><path class="cls-1" d="M540.35,1073.27h3.4l4.09,12.16,1.23,4.51h.13c.25-2.14.45-4.85.91-7.15l1.91-9.52h3.31l-4.19,21h-3.37l-4.07-12.14-1.22-4.58h-.13c-.24,2.25-.51,4.81-1,7.08l-1.92,9.64h-3.31Z" transform="translate(-508.74 -1072.89)"></path><path class="cls-1" d="M556,1090.82l2.5-1.94a6.08,6.08,0,0,0,5,2.8c2.17,0,3.74-1.22,3.74-3.17,0-1.33-1-2.09-2.52-3l-2.21-1.34c-1.85-1.14-3.18-2.64-3.18-5.09,0-3.38,3-6.17,7-6.17a7.87,7.87,0,0,1,6.14,3.07l-2.2,2a5.52,5.52,0,0,0-4.13-2.12,3,3,0,0,0-3.23,2.82c0,1.34,1.08,2,2.67,3l2.25,1.35c2,1.2,3,2.58,3,5,0,3.78-3.06,6.62-7.61,6.62A8.54,8.54,0,0,1,556,1090.82Z" transform="translate(-508.74 -1072.89)"></path><path class="cls-1" d="M577.84,1073.27h12l-.58,2.91h-8.58l-1.12,5.66h7.27l-.57,2.91H579l-1.36,6.59h8.86l-.58,2.91h-12.3Z" transform="translate(-508.74 -1072.89)"></path><path class="cls-1" d="M594.67,1073.27h12l-.58,2.91h-8.58l-1.12,5.66h7.28l-.58,2.91h-7.25l-1.36,6.59h8.87l-.58,2.91h-12.3Z" transform="translate(-508.74 -1072.89)"></path><path class="cls-1" d="M611.51,1073.27h3.4l4.09,12.16,1.23,4.51h.13c.24-2.14.45-4.85.91-7.15l1.91-9.52h3.31l-4.19,21h-3.38l-4.06-12.14-1.22-4.58h-.13c-.24,2.25-.51,4.81-1,7.08l-1.91,9.64h-3.31Z" transform="translate(-508.74 -1072.89)"></path><path class="cls-1" d="M589.23,1101.06h6.18c4,0,6.86,1.43,6.86,5.14,0,5.1-4.17,7.55-9,7.55h-3.16L588.5,1122H585Zm4.17,9.93c3.56,0,5.44-1.68,5.44-4.31,0-2-1.42-2.86-4.09-2.86h-2.63l-1.4,7.17Zm-.42,2,2.55-2.16L600,1122h-3.67Z" transform="translate(-508.74 -1072.89)"></path><path class="cls-1" d="M608,1101.06h3.46l-4.2,21h-3.46Z" transform="translate(-508.74 -1072.89)"></path><path class="cls-1" d="M613.71,1113.8c0-6.92,4.61-13.12,11-13.12a6.06,6.06,0,0,1,5.37,3.22l-2.38,1.82a3.69,3.69,0,0,0-3.17-2c-4.27,0-7.28,5-7.28,9.86,0,3.53,1.44,5.91,4.85,5.91a6.22,6.22,0,0,0,4-1.74l1.5,2.22a9.3,9.3,0,0,1-6.19,2.51C616.6,1122.43,613.71,1119.06,613.71,1113.8Z" transform="translate(-508.74 -1072.89)"></path><path class="cls-1" d="M635.35,1101.06h3.46l-1.73,8.5h8.3l1.69-8.5h3.47l-4.2,21h-3.46l1.91-9.46h-8.3l-1.87,9.46h-3.47Z" transform="translate(-508.74 -1072.89)"></path><path class="cls-1" d="M656.13,1101.06h12l-.58,2.92H659l-1.12,5.65h7.27l-.57,2.92h-7.25l-1.36,6.58h8.86l-.58,2.91h-12.3Z" transform="translate(-508.74 -1072.89)"></path><path class="cls-1" d="M668,1118.61l2.5-1.94a6.09,6.09,0,0,0,5,2.8c2.17,0,3.75-1.22,3.75-3.17,0-1.33-1-2.09-2.53-3l-2.2-1.34c-1.85-1.14-3.19-2.63-3.19-5.09,0-3.38,3-6.17,7-6.17a7.9,7.9,0,0,1,6.15,3.07l-2.21,2a5.5,5.5,0,0,0-4.13-2.12,3,3,0,0,0-3.22,2.82c0,1.34,1.07,2,2.66,3l2.26,1.36c2,1.19,3,2.57,3,5,0,3.78-3.07,6.63-7.61,6.63A8.58,8.58,0,0,1,668,1118.61Z" transform="translate(-508.74 -1072.89)"></path><rect class="cls-1" x="4.71" y="35.57" width="64.56" height="2.2"></rect><rect class="cls-1" x="123.73" y="9.63" width="55.56" height="2.2"></rect><path class="cls-1" d="M705.56,1082.51l3.75,0,3.08.07,3.2.06,4,0c.87,0,1.29.69.86,1.58a11.85,11.85,0,0,1-1.53,2.37c-2,2.49-2.42,5-1,7s4.51,2.22,6.83.62a5.7,5.7,0,0,0,2.12-7.12,11.33,11.33,0,0,1-1-2.73,1.38,1.38,0,0,1,1.41-1.67c.46,0,.91.07,1.37.07l11.78.16h.8c-.06.36-.1.64-.14.92q-1.12,7.08-2.23,14.16c-.28,1.74.68,2.69,2.28,2.16a11.66,11.66,0,0,0,1.95-1c.36-.2.68-.47,1-.68,2.65-1.58,5.18-.43,5.56,2.51s-1.67,5.93-4.27,6.3a3.14,3.14,0,0,1-2.41-.67c-.44-.32-.8-.76-1.25-1.06a6.12,6.12,0,0,0-1.72-.89,2.11,2.11,0,0,0-2.48,1.8c-.35,2-.61,3.93-.92,5.89-.5,3.16-1,6.32-1.51,9.56-.3,0-.54,0-.77,0l-13.09-.18c-1.16,0-1.55-.77-.91-1.95a15.55,15.55,0,0,1,1.5-2.14c1.27-1.63,2-3.33,1.57-5.27a4.34,4.34,0,0,0-5-3.18,6.13,6.13,0,0,0-5,4.56,5.81,5.81,0,0,0,.59,4,10.16,10.16,0,0,1,.75,2.34,1.3,1.3,0,0,1-1.27,1.52c-4.63,0-9.26-.11-13.89-.17,0,0-.07,0-.17-.09,0-.2,0-.43.07-.66l1.56-9.91c.23-1.5.47-3,.71-4.52s-.74-2.59-2.2-2.07a13.56,13.56,0,0,0-2.5,1.36,4.82,4.82,0,0,1-3.48,1c-2.12-.44-3.24-3-2.47-5.51a5.33,5.33,0,0,1,4-4,3.34,3.34,0,0,1,2.74.81c.33.26.61.6,1,.84a6.55,6.55,0,0,0,1.51.88c1.36.47,2.56-.4,2.82-2q1.08-6.69,2.12-13.38C705.36,1083.79,705.45,1083.22,705.56,1082.51Z" transform="translate(-508.74 -1072.89)"></path><path class="cls-1" d="M519.35,1110.66a44.23,44.23,0,0,0-4.41,2.6,4.79,4.79,0,0,1-3.49,1c-2.12-.43-3.23-3-2.47-5.51a5.34,5.34,0,0,1,4-4,3.4,3.4,0,0,1,2.75.82c.33.25.6.59.94.83a22.14,22.14,0,0,0,2.7,2" transform="translate(-508.74 -1072.89)"></path></svg>